<mxfile host="app.diagrams.net" modified="2023-02-10T14:51:50.974Z" agent="5.0 (Macintosh; Intel Mac OS X 10_15_7) AppleWebKit/537.36 (KHTML, like Gecko) Chrome/107.0.0.0 Safari/537.36" etag="71Y73ce_zL1RNeqG0kbU" version="20.8.19" type="github">
  <diagram name="第 1 页" id="No5wHwo3nu7ad_z-oZDp">
    <mxGraphModel dx="1026" dy="683" grid="1" gridSize="10" guides="1" tooltips="1" connect="1" arrows="1" fold="1" page="1" pageScale="1" pageWidth="827" pageHeight="1169" math="0" shadow="0">
      <root>
        <mxCell id="0" />
        <mxCell id="1" parent="0" />
        <mxCell id="a4AF9OG9PnNQbdO9jZuc-3" value="" style="edgeStyle=orthogonalEdgeStyle;rounded=0;orthogonalLoop=1;jettySize=auto;html=1;" edge="1" parent="1" target="a4AF9OG9PnNQbdO9jZuc-2">
          <mxGeometry relative="1" as="geometry">
            <mxPoint x="180" y="290" as="sourcePoint" />
          </mxGeometry>
        </mxCell>
        <mxCell id="a4AF9OG9PnNQbdO9jZuc-1" value="Actor" style="shape=umlActor;verticalLabelPosition=bottom;verticalAlign=top;html=1;outlineConnect=0;" vertex="1" parent="1">
          <mxGeometry x="140" y="260" width="30" height="60" as="geometry" />
        </mxCell>
        <mxCell id="a4AF9OG9PnNQbdO9jZuc-5" value="" style="edgeStyle=orthogonalEdgeStyle;rounded=0;orthogonalLoop=1;jettySize=auto;html=1;" edge="1" parent="1" source="a4AF9OG9PnNQbdO9jZuc-2" target="a4AF9OG9PnNQbdO9jZuc-4">
          <mxGeometry relative="1" as="geometry">
            <Array as="points">
              <mxPoint x="430" y="280" />
              <mxPoint x="430" y="280" />
            </Array>
          </mxGeometry>
        </mxCell>
        <mxCell id="a4AF9OG9PnNQbdO9jZuc-9" value="" style="edgeStyle=orthogonalEdgeStyle;rounded=0;orthogonalLoop=1;jettySize=auto;html=1;fontSize=18;" edge="1" parent="1" source="a4AF9OG9PnNQbdO9jZuc-2" target="a4AF9OG9PnNQbdO9jZuc-8">
          <mxGeometry relative="1" as="geometry" />
        </mxCell>
        <mxCell id="a4AF9OG9PnNQbdO9jZuc-2" value="&lt;font style=&quot;font-size: 18px;&quot;&gt;抽奖&lt;/font&gt;" style="rounded=1;whiteSpace=wrap;html=1;" vertex="1" parent="1">
          <mxGeometry x="270" y="260" width="120" height="60" as="geometry" />
        </mxCell>
        <mxCell id="a4AF9OG9PnNQbdO9jZuc-6" value="" style="edgeStyle=orthogonalEdgeStyle;rounded=0;orthogonalLoop=1;jettySize=auto;html=1;fontSize=18;" edge="1" parent="1" source="a4AF9OG9PnNQbdO9jZuc-4" target="a4AF9OG9PnNQbdO9jZuc-2">
          <mxGeometry relative="1" as="geometry">
            <Array as="points">
              <mxPoint x="440" y="300" />
              <mxPoint x="440" y="300" />
            </Array>
          </mxGeometry>
        </mxCell>
        <mxCell id="a4AF9OG9PnNQbdO9jZuc-4" value="&lt;font style=&quot;font-size: 18px;&quot;&gt;发奖成功&lt;/font&gt;" style="rounded=1;whiteSpace=wrap;html=1;" vertex="1" parent="1">
          <mxGeometry x="470" y="260" width="120" height="60" as="geometry" />
        </mxCell>
        <mxCell id="a4AF9OG9PnNQbdO9jZuc-7" value="响应超时" style="text;html=1;align=center;verticalAlign=middle;resizable=0;points=[];autosize=1;strokeColor=none;fillColor=none;fontSize=18;" vertex="1" parent="1">
          <mxGeometry x="380" y="310" width="100" height="40" as="geometry" />
        </mxCell>
        <mxCell id="a4AF9OG9PnNQbdO9jZuc-11" value="" style="edgeStyle=orthogonalEdgeStyle;rounded=0;orthogonalLoop=1;jettySize=auto;html=1;fontSize=18;" edge="1" parent="1" source="a4AF9OG9PnNQbdO9jZuc-8" target="a4AF9OG9PnNQbdO9jZuc-10">
          <mxGeometry relative="1" as="geometry" />
        </mxCell>
        <mxCell id="a4AF9OG9PnNQbdO9jZuc-8" value="&lt;font style=&quot;font-size: 18px;&quot;&gt;多次抽奖超时&lt;/font&gt;" style="rounded=1;whiteSpace=wrap;html=1;" vertex="1" parent="1">
          <mxGeometry x="270" y="350" width="120" height="60" as="geometry" />
        </mxCell>
        <mxCell id="a4AF9OG9PnNQbdO9jZuc-13" value="" style="edgeStyle=orthogonalEdgeStyle;rounded=0;orthogonalLoop=1;jettySize=auto;html=1;fontSize=18;" edge="1" parent="1" source="a4AF9OG9PnNQbdO9jZuc-10" target="a4AF9OG9PnNQbdO9jZuc-12">
          <mxGeometry relative="1" as="geometry" />
        </mxCell>
        <mxCell id="a4AF9OG9PnNQbdO9jZuc-10" value="&lt;span style=&quot;font-size: 18px;&quot;&gt;发现扣了很多UC&lt;/span&gt;" style="rounded=1;whiteSpace=wrap;html=1;" vertex="1" parent="1">
          <mxGeometry x="270" y="440" width="120" height="60" as="geometry" />
        </mxCell>
        <mxCell id="a4AF9OG9PnNQbdO9jZuc-15" value="" style="edgeStyle=orthogonalEdgeStyle;rounded=0;orthogonalLoop=1;jettySize=auto;html=1;fontSize=18;" edge="1" parent="1" source="a4AF9OG9PnNQbdO9jZuc-12" target="a4AF9OG9PnNQbdO9jZuc-14">
          <mxGeometry relative="1" as="geometry" />
        </mxCell>
        <mxCell id="a4AF9OG9PnNQbdO9jZuc-12" value="&lt;span style=&quot;font-size: 18px;&quot;&gt;截图反馈、退款&lt;/span&gt;" style="rounded=1;whiteSpace=wrap;html=1;" vertex="1" parent="1">
          <mxGeometry x="270" y="530" width="120" height="60" as="geometry" />
        </mxCell>
        <mxCell id="a4AF9OG9PnNQbdO9jZuc-14" value="&lt;span style=&quot;font-size: 18px;&quot;&gt;客服人力浪费&lt;/span&gt;" style="rounded=1;whiteSpace=wrap;html=1;" vertex="1" parent="1">
          <mxGeometry x="470" y="530" width="120" height="60" as="geometry" />
        </mxCell>
      </root>
    </mxGraphModel>
  </diagram>
</mxfile>
